<svg xmlns="http://www.w3.org/2000/svg" xmlns:svg="http://www.w3.org/2000/svg" xmlns:xlink="http://www.w3.org/1999/xlink" xmlns:sodipodi="http://sodipodi.sourceforge.net/DTD/sodipodi-0.dtd" xmlns:inkscape="http://www.inkscape.org/namespaces/inkscape" viewBox="0 0 793.7007874015749 1122.5196850393702" width="793.7007874015749" height="1122.5196850393702">
    <defs><marker id="DistanceX" orient="auto" refX="0.0" refY="0.0" style="overflow:visible"><path d="M 3,-3 L -3,3 M 0,-5 L  0,5" style="stroke:#000000; stroke-width:0.5"/></marker><pattern id="Hatch" patternUnits="userSpaceOnUse" width="8" height="8" x="0" y="0"><path d="M8 4 l-4,4" stroke="#000000" stroke-width="0.25" linecap="square"/><path d="M6 2 l-4,4" stroke="#000000" stroke-width="0.25" linecap="square"/><path d="M4 0 l-4,4" stroke="#000000" stroke-width="0.25" linecap="square"/></pattern><symbol id="*MODEL_SPACE"/><symbol id="*PAPER_SPACE"/></defs><g inkscape:groupmode="layer" inkscape:label="0"/><g inkscape:groupmode="layer" inkscape:label="&#209;&#203;&#206;&#201;1"><path style="fill:none;stroke:#FF0000" d="M 499.028 396.518 L 425.822 396.518"/><path style="fill:none;stroke:#FF0000" d="M 419.527 396.518 L 383.891 396.518"/><path style="fill:none;stroke:#FF0000" d="M 392.277 450.409 L 444.944 450.409"/><path style="fill:none;stroke:#FF0000" d="M 444.944 450.409 L 444.944 396.518"/><path style="fill:none;stroke:#FF0000" d="M 392.277 450.409 L 392.277 396.518"/><path style="fill:none;stroke:#FF0000" d="M 370.61 396.518 L 326.855 396.518"/><path style="fill:none;stroke:#FF0000" d="M 363.472 450.409 L 339.585 450.409"/><path style="fill:none;stroke:#FF0000" d="M 339.585 450.409 L 339.585 424.931"/><path style="fill:none;stroke:#FF0000" d="M 363.472 450.409 L 363.472 396.518"/><path style="fill:none;stroke:#FF0000" d="M 444.944 450.409 L 444.944 474.152"/><path style="fill:none;stroke:#FF0000" d="M 392.277 450.409 L 392.277 460.298"/><path style="fill:none;stroke:#FF0000" d="M 392.277 465.746 L 392.277 474.152"/><path style="fill:none;stroke:#FF0000" d="M 392.277 474.152 L 444.944 474.152"/><path style="fill:none;stroke:#FF0000" d="M 339.585 450.409 L 266.125 450.409"/><path style="fill:none;stroke:#FF0000" d="M 314.043 396.518 L 302.613 396.518"/><path style="fill:none;stroke:#FF0000" d="M 302.613 396.518 L 295.189 396.518"/><path style="fill:none;stroke:#FF0000" d="M 302.613 396.518 L 302.613 450.409"/><path style="fill:none;stroke:#FF0000" d="M 363.472 450.409 L 363.472 455.865"/><path style="fill:none;stroke:#FF0000" d="M 363.472 466.616 L 341.973 466.616"/><path style="fill:none;stroke:#FF0000" d="M 341.973 466.616 L 329.849 466.616"/><path style="fill:none;stroke:#FF0000" d="M 341.973 466.616 L 341.973 485.439"/><path style="fill:none;stroke:#FF0000" d="M 341.973 485.439 L 282.826 485.439"/><path style="fill:none;stroke:#FF0000" d="M 282.826 485.439 L 282.826 450.409"/><path style="fill:none;stroke:#FF0000" d="M 324.419 466.616 L 315.428 466.616"/><path style="fill:none;stroke:#FF0000" d="M 315.428 466.616 L 311.988 466.616"/><path style="fill:none;stroke:#FF0000" d="M 306.75 466.616 L 299.87 466.616"/><path style="fill:none;stroke:#FF0000" d="M 299.87 466.616 L 297.133 466.616"/><path style="fill:none;stroke:#FF0000" d="M 291.426 466.616 L 282.826 466.616"/><path style="fill:none;stroke:#FF0000" d="M 315.428 466.616 L 315.428 485.439"/><path style="fill:none;stroke:#FF0000" d="M 299.87 466.616 L 299.87 485.439"/><path style="fill:none;stroke:#FF0000" d="M 289.373 396.518 L 282.801 396.518"/><path style="fill:none;stroke:#FF0000" d="M 282.801 396.518 L 282.826 450.409"/><path style="fill:none;stroke:#FF0000" d="M 282.801 396.518 L 265.685 396.518"/><path style="fill:none;stroke:#FF0000" d="M 253.121 396.518 L 234.025 396.518"/><path style="fill:none;stroke:#FF0000" d="M 234.025 396.518 L 213.725 396.518"/><path style="fill:none;stroke:#FF0000" d="M 201 396.518 L 181.143 396.518"/><path style="fill:none;stroke:#FF0000" d="M 181.143 396.518 L 169.92 396.518"/><path style="fill:none;stroke:#FF0000" d="M 162.994 396.518 L 153.881 396.518"/><path style="fill:none;stroke:#FF0000" d="M 153.881 396.518 L 144.676 396.518"/><path style="fill:none;stroke:#FF0000" d="M 138.206 396.518 L 129.731 396.518"/><path style="fill:none;stroke:#FF0000" d="M 234.025 396.518 L 234.025 469.138"/><path style="fill:none;stroke:#FF0000" d="M 234.025 469.138 L 282.826 469.138"/><path style="fill:none;stroke:#FF0000" d="M 234.025 469.138 L 181.257 469.138"/><path style="fill:none;stroke:#FF0000" d="M 181.257 469.138 L 181.257 396.518"/><path style="fill:none;stroke:#FF0000" d="M 181.257 469.138 L 145.467 469.138"/><path style="fill:none;stroke:#FF0000" d="M 145.467 469.138 L 145.467 446.861"/><path style="fill:none;stroke:#FF0000" d="M 145.467 446.861 L 129.92 446.861"/><path style="fill:none;stroke:#FF0000" d="M 129.92 446.861 L 129.731 396.518"/><path style="fill:none;stroke:#FF0000" d="M 153.881 396.518 L 153.881 427.955"/><path style="fill:none;stroke:#FF0000" d="M 153.881 427.955 L 181.257 427.955"/><path style="fill:none;stroke:#FF0000" d="M 145.467 469.138 L 129.926 469.138"/><path style="fill:none;stroke:#FF0000" d="M 129.926 469.138 L 129.92 446.861"/><path style="fill:none;stroke:#FF0000" d="M 129.92 446.861 L 43.9201 446.861"/><path style="fill:none;stroke:#FF0000" d="M 43.9201 446.861 L 43.9201 419.308"/><path style="fill:none;stroke:#FF0000" d="M 43.9201 419.308 L 104.551 419.308"/><path style="fill:none;stroke:#FF0000" d="M 110.923 419.308 L 129.816 419.308"/><path style="fill:none;stroke:#FF0000" d="M 129.731 396.518 L 129.731 339.052"/><path style="fill:none;stroke:#FF0000" d="M 129.731 327.148 L 129.731 294.29"/><path style="fill:none;stroke:#FF0000" d="M 129.731 294.29 L 19.4111 294.29"/><path style="fill:none;stroke:#FF0000" d="M 19.4111 294.29 L 19.4111 419.253"/><path style="fill:none;stroke:#FF0000" d="M 19.4111 419.253 L 43.9201 419.308"/><path style="fill:none;stroke:#FF0000" d="M 129.731 294.29 L 129.731 270.727"/><path style="fill:none;stroke:#FF0000" d="M 129.731 259.529 L 129.731 241.878"/><path style="fill:none;stroke:#FF0000" d="M 129.731 241.878 L 129.731 185.729"/><path style="fill:none;stroke:#FF0000" d="M 19.4111 294.29 L 19.4111 185.729"/><path style="fill:none;stroke:#FF0000" d="M 19.4111 185.729 L 129.731 185.729"/><path style="fill:none;stroke:#FF0000" d="M 129.731 241.878 L 133.318 241.878"/><path style="fill:none;stroke:#FF0000" d="M 139.295 241.878 L 156.984 241.878"/><path style="fill:none;stroke:#FF0000" d="M 156.984 241.878 L 201.51 241.878"/><path style="fill:none;stroke:#FF0000" d="M 214.319 241.878 L 235.056 241.878"/><path style="fill:none;stroke:#FF0000" d="M 235.056 241.878 L 235.056 186.067"/><path style="fill:none;stroke:#FF0000" d="M 235.056 186.067 L 129.731 186.067"/><path style="fill:none;stroke:#FF0000" d="M 156.984 241.878 L 156.984 186.067"/><path style="fill:none;stroke:#FF0000" d="M 235.056 241.878 L 306.932 241.878"/><path style="fill:none;stroke:#FF0000" d="M 319.72 241.878 L 341.139 241.878"/><path style="fill:none;stroke:#FF0000" d="M 341.139 241.878 L 341.139 185.993"/><path style="fill:none;stroke:#FF0000" d="M 341.139 185.993 L 235.056 186.067"/><path style="fill:none;stroke:#FF0000" d="M 341.139 185.993 L 551.235 185.993"/><path style="fill:none;stroke:#FF0000" d="M 551.235 185.993 L 551.235 241.221"/><path style="fill:none;stroke:#FF0000" d="M 551.235 241.221 L 530.849 241.221"/><path style="fill:none;stroke:#FF0000" d="M 517.583 241.221 L 497.844 241.221"/><path style="fill:none;stroke:#FF0000" d="M 497.844 241.221 L 477.458 241.221"/><path style="fill:none;stroke:#FF0000" d="M 471.632 241.221 L 425.036 241.221"/><path style="fill:none;stroke:#FF0000" d="M 363.878 241.221 L 341.139 241.221"/><path style="fill:none;stroke:#FF0000" d="M 497.844 241.221 L 497.844 185.993"/><path style="fill:none;stroke:#FF0000" d="M 413.171 241.221 L 391.272 241.221"/><path style="fill:none;stroke:#FF0000" d="M 391.272 241.221 L 369.501 241.221"/><path style="fill:none;stroke:#FF0000" d="M 391.272 241.221 L 391.272 185.993"/><path style="fill:none;stroke:#FF0000" d="M 499.028 396.518 L 499.028 451.213"/><path style="fill:none;stroke:#FF0000" d="M 551.235 241.221 L 551.235 451.414"/><path style="fill:none;stroke:#FF0000" d="M 499.028 451.213 L 444.944 450.409"/><path d="M 438.588576,320.808615 A 17.127522,17.127522 0.000000 0, 0 404.333532,320.808615 A 17.127522,17.127522 0.000000 0, 0 438.588576,320.808615 z" style="fill:none;stroke:#FF0000"/><path d="M 179.385999,290.905267 L 183.010721,290.905267 L 183.010721,295.224309 L 179.385999,295.224309 L 179.385999,290.905267 z" style="fill:none;stroke:#FF0000"/><path d="M 284.936865,290.765880 L 288.840982,290.765880 L 288.840982,294.806149 L 284.936865,294.806149 L 284.936865,290.765880 z" style="fill:none;stroke:#FF0000"/><path d="M 284.657469,348.723994 L 288.840982,348.723994 L 288.840982,352.485976 L 284.657469,352.485976 L 284.657469,348.723994 z" style="fill:none;stroke:#FF0000"/><path d="M 337.626377,290.962289 L 341.490934,290.962289 L 341.490934,294.823694 L 337.626377,294.823694 L 337.626377,290.962289 z" style="fill:none;stroke:#FF0000"/><path d="M 337.736405,348.965241 L 341.629396,348.965241 L 341.629396,352.959209 L 337.736405,352.959209 L 337.736405,348.965241 z" style="fill:none;stroke:#FF0000"/><path d="M 387.751881,290.948155 L 396.728384,290.948155 L 396.728384,294.715498 L 387.751881,294.715498 L 387.751881,290.948155 z" style="fill:none;stroke:#FF0000"/><path d="M 387.431689,348.934049 L 396.767944,348.934049 L 396.767944,352.737945 L 387.431689,352.737945 L 387.431689,348.934049 z" style="fill:none;stroke:#FF0000"/><path d="M 443.469001,290.880899 L 447.404025,290.880899 L 447.404025,294.630697 L 443.469001,294.630697 L 443.469001,290.880899 z" style="fill:none;stroke:#FF0000"/><path d="M 443.304578,349.019338 L 447.251965,349.019338 L 447.251965,352.747692 L 443.304578,352.747692 L 443.304578,349.019338 z" style="fill:none;stroke:#FF0000"/><path d="M 495.699860,291.060250 L 499.795598,291.060250 L 499.795598,294.800788 L 495.699860,294.800788 L 495.699860,291.060250 z" style="fill:none;stroke:#FF0000"/><path d="M 495.787635,349.125584 L 499.964966,349.125584 L 499.964966,352.905112 L 495.787635,352.905112 L 495.787635,349.125584 z" style="fill:none;stroke:#FF0000"/><path d="M 232.023589,348.906269 L 236.027843,348.906269 L 236.027843,352.754028 L 232.023589,352.754028 L 232.023589,348.906269 z" style="fill:none;stroke:#FF0000"/><path d="M 183.479562,350.775807 A 2.182301,2.182301 0.000000 0, 0 179.114960,350.775807 A 2.182301,2.182301 0.000000 0, 0 183.479562,350.775807 z" style="fill:none;stroke:#FF0000"/><path d="M 236.278540,292.625183 A 2.275695,2.275695 0.000000 0, 0 231.727151,292.625183 A 2.275695,2.275695 0.000000 0, 0 236.278540,292.625183 z" style="fill:none;stroke:#FF0000"/><path style="fill:none;stroke:#FF0000" d="M 499.028 451.213 L 499.028 488.007"/><path style="fill:none;stroke:#FF0000" d="M 551.235 451.414 L 551.235 488.007"/><path style="fill:none;stroke:#FF0000" d="M 19.4111 419.253 L 19.4111 488.007"/><path style="fill:none;stroke:#FF0000" d="M 19.4111 488.007 L 551.235 488.007"/><path d="M 499.027610,396.518494 L 444.944431,396.518494 L 444.944431,450.409398 L 499.027610,451.212787 z " style="fill:#FF0000"/><path style="fill:none;stroke:#FF0000" d="M 392.277 474.152 L 392.277 488.007"/><path style="fill:none;stroke:#FF0000" d="M 444.944 474.152 L 444.944 488.007"/><path style="fill:none;stroke:#FF0000" d="M 363.472 466.616 L 363.472 488.007"/><path style="fill:none;stroke:#FF0000" d="M 341.973 485.439 L 341.973 488.007"/><path style="fill:none;stroke:#FF0000" d="M 282.826 485.439 L 282.826 488.007"/><path style="fill:none;stroke:#FF0000" d="M 129.926 469.138 L 129.931 488.007"/><path style="fill:none;stroke:#FF0000" d="M 43.9201 446.861 L 19.4111 446.861"/><path d="M 499.027610,451.212787 L 444.944431,450.409398 L 444.944431,474.152030 L 444.944431,488.007249 L 499.027610,488.007249 z " style="fill:#FF0000"/><path d="M 444.944431,474.152030 L 392.277339,474.152030 L 392.277339,488.007249 L 444.944431,488.007249 z " style="fill:#FF0000"/><path d="M 282.825940,469.138345 L 234.025392,469.138345 L 181.256907,469.138345 L 145.467454,469.138345 L 129.925605,469.138345 L 129.930711,488.007249 L 282.825940,488.007249 L 282.825940,485.439093 z " style="fill:#FF0000"/><path d="M 129.919576,446.861234 L 43.920051,446.861234 L 19.411145,446.861234 L 19.411145,488.007249 L 129.930711,488.007249 L 129.925605,469.138345 z " style="fill:#FF0000"/><path d="M 43.920051,419.308313 L 19.411145,419.253240 L 19.411145,446.861234 L 43.920051,446.861234 z " style="fill:#FF0000"/><path d="M 145.467454,446.861234 L 129.919576,446.861234 L 129.925605,469.138345 L 145.467454,469.138345 z " style="fill:#FF0000"/><path d="M 341.972978,485.439093 L 282.825940,485.439093 L 282.825940,488.007249 L 341.972978,488.007249 z " style="fill:#FF0000"/><path d="M 152.205710,299.401955 L 232.066461,299.401955 L 232.066461,309.623212 L 152.205710,309.623212 L 152.205710,299.401955 z" style="fill:none;stroke:#FF0000"/><path d="M 152.205710,315.720097 L 232.066461,315.720097 L 232.066461,325.941354 L 152.205710,325.941354 L 152.205710,315.720097 z" style="fill:none;stroke:#FF0000"/><path style="fill:none;stroke:#FF0000" d="M 165.217 300.568 L 189.175 300.568"/><path style="fill:none;stroke:#FF0000" d="M 189.175 300.568 L 189.175 304.423"/><path style="fill:none;stroke:#FF0000" d="M 189.175 304.423 L 193.662 304.423"/><path style="fill:none;stroke:#FF0000" d="M 193.662 304.423 L 197.251 308.458"/><path style="fill:none;stroke:#FF0000" d="M 189.175 304.423 L 189.175 308.458"/><path style="fill:none;stroke:#FF0000" d="M 193.662 304.423 L 193.662 308.458"/><path style="fill:none;stroke:#FF0000" d="M 165.217 300.568 L 165.217 304.513"/><path style="fill:none;stroke:#FF0000" d="M 165.217 304.513 L 167.639 304.513"/><path style="fill:none;stroke:#FF0000" d="M 167.639 304.513 L 169.883 304.513"/><path style="fill:none;stroke:#FF0000" d="M 169.883 304.513 L 171.947 304.513"/><path style="fill:none;stroke:#FF0000" d="M 171.947 304.513 L 174.28 304.513"/><path style="fill:none;stroke:#FF0000" d="M 174.28 304.513 L 176.343 304.513"/><path style="fill:none;stroke:#FF0000" d="M 176.343 304.513 L 178.407 304.513"/><path style="fill:none;stroke:#FF0000" d="M 178.407 304.513 L 180.74 304.513"/><path style="fill:none;stroke:#FF0000" d="M 180.74 304.513 L 182.714 304.513"/><path style="fill:none;stroke:#FF0000" d="M 182.714 304.513 L 184.868 304.513"/><path style="fill:none;stroke:#FF0000" d="M 184.868 304.513 L 187.021 304.513"/><path style="fill:none;stroke:#FF0000" d="M 187.021 304.513 L 189.175 304.423"/><path style="fill:none;stroke:#FF0000" d="M 167.639 304.513 L 167.639 300.568"/><path style="fill:none;stroke:#FF0000" d="M 165.217 308.458 L 165.217 304.513"/><path style="fill:none;stroke:#FF0000" d="M 169.883 304.513 L 169.883 300.568"/><path style="fill:none;stroke:#FF0000" d="M 171.947 304.513 L 171.947 300.568"/><path style="fill:none;stroke:#FF0000" d="M 174.28 304.513 L 174.28 300.568"/><path style="fill:none;stroke:#FF0000" d="M 176.343 304.513 L 176.343 300.568"/><path style="fill:none;stroke:#FF0000" d="M 178.407 304.513 L 178.407 300.568"/><path style="fill:none;stroke:#FF0000" d="M 180.74 304.513 L 180.74 300.568"/><path style="fill:none;stroke:#FF0000" d="M 182.714 304.513 L 182.714 300.568"/><path style="fill:none;stroke:#FF0000" d="M 184.868 304.513 L 184.868 300.568"/><path style="fill:none;stroke:#FF0000" d="M 187.021 304.513 L 187.021 300.568"/><path style="fill:none;stroke:#FF0000" d="M 167.639 304.513 L 167.639 308.458"/><path style="fill:none;stroke:#FF0000" d="M 169.883 304.513 L 169.883 308.458"/><path style="fill:none;stroke:#FF0000" d="M 171.947 304.513 L 171.947 308.458"/><path style="fill:none;stroke:#FF0000" d="M 174.28 304.513 L 174.28 308.458"/><path style="fill:none;stroke:#FF0000" d="M 176.343 304.513 L 176.343 308.458"/><path style="fill:none;stroke:#FF0000" d="M 178.407 304.513 L 178.407 308.458"/><path style="fill:none;stroke:#FF0000" d="M 180.74 304.513 L 180.74 308.458"/><path style="fill:none;stroke:#FF0000" d="M 182.714 304.513 L 182.714 308.458"/><path style="fill:none;stroke:#FF0000" d="M 184.868 304.602 L 184.868 308.458"/><path style="fill:none;stroke:#FF0000" d="M 187.021 304.513 L 187.021 308.458"/><path style="fill:none;stroke:#FF0000" d="M 191.239 308.458 L 165.217 308.458"/><path style="fill:none;stroke:#FF0000" d="M 191.239 308.458 L 191.239 304.423"/><path style="fill:none;stroke:#FF0000" d="M 189.175 300.568 L 193.662 304.423"/><path style="fill:none;stroke:#FF0000" d="M 165.127 316.706 L 189.085 316.706"/><path style="fill:none;stroke:#FF0000" d="M 189.085 316.706 L 189.085 320.562"/><path style="fill:none;stroke:#FF0000" d="M 189.085 320.562 L 193.572 320.562"/><path style="fill:none;stroke:#FF0000" d="M 193.572 320.562 L 197.161 324.596"/><path style="fill:none;stroke:#FF0000" d="M 189.085 320.562 L 189.085 324.596"/><path style="fill:none;stroke:#FF0000" d="M 193.572 320.562 L 193.572 324.596"/><path style="fill:none;stroke:#FF0000" d="M 165.127 316.706 L 165.127 320.651"/><path style="fill:none;stroke:#FF0000" d="M 165.127 320.651 L 167.55 320.651"/><path style="fill:none;stroke:#FF0000" d="M 167.55 320.651 L 169.793 320.651"/><path style="fill:none;stroke:#FF0000" d="M 169.793 320.651 L 171.857 320.651"/><path style="fill:none;stroke:#FF0000" d="M 171.857 320.651 L 174.19 320.651"/><path style="fill:none;stroke:#FF0000" d="M 174.19 320.651 L 176.254 320.651"/><path style="fill:none;stroke:#FF0000" d="M 176.254 320.651 L 178.317 320.651"/><path style="fill:none;stroke:#FF0000" d="M 178.317 320.651 L 180.65 320.651"/><path style="fill:none;stroke:#FF0000" d="M 180.65 320.651 L 182.625 320.651"/><path style="fill:none;stroke:#FF0000" d="M 182.625 320.651 L 184.778 320.651"/><path style="fill:none;stroke:#FF0000" d="M 184.778 320.651 L 186.932 320.651"/><path style="fill:none;stroke:#FF0000" d="M 186.932 320.651 L 189.085 320.562"/><path style="fill:none;stroke:#FF0000" d="M 167.55 320.651 L 167.55 316.706"/><path style="fill:none;stroke:#FF0000" d="M 165.127 324.596 L 165.127 320.651"/><path style="fill:none;stroke:#FF0000" d="M 169.793 320.651 L 169.793 316.706"/><path style="fill:none;stroke:#FF0000" d="M 171.857 320.651 L 171.857 316.706"/><path style="fill:none;stroke:#FF0000" d="M 174.19 320.651 L 174.19 316.706"/><path style="fill:none;stroke:#FF0000" d="M 176.254 320.651 L 176.254 316.706"/><path style="fill:none;stroke:#FF0000" d="M 178.317 320.651 L 178.317 316.706"/><path style="fill:none;stroke:#FF0000" d="M 180.65 320.651 L 180.65 316.706"/><path style="fill:none;stroke:#FF0000" d="M 182.625 320.651 L 182.625 316.706"/><path style="fill:none;stroke:#FF0000" d="M 184.778 320.651 L 184.778 316.706"/><path style="fill:none;stroke:#FF0000" d="M 186.932 320.651 L 186.932 316.706"/><path style="fill:none;stroke:#FF0000" d="M 167.55 320.651 L 167.55 324.596"/><path style="fill:none;stroke:#FF0000" d="M 169.793 320.651 L 169.793 324.596"/><path style="fill:none;stroke:#FF0000" d="M 171.857 320.651 L 171.857 324.596"/><path style="fill:none;stroke:#FF0000" d="M 174.19 320.651 L 174.19 324.596"/><path style="fill:none;stroke:#FF0000" d="M 176.254 320.651 L 176.254 324.596"/><path style="fill:none;stroke:#FF0000" d="M 178.317 320.651 L 178.317 324.596"/><path style="fill:none;stroke:#FF0000" d="M 180.65 320.651 L 180.65 324.596"/><path style="fill:none;stroke:#FF0000" d="M 182.625 320.651 L 182.625 324.596"/><path style="fill:none;stroke:#FF0000" d="M 184.778 320.741 L 184.778 324.596"/><path style="fill:none;stroke:#FF0000" d="M 186.932 320.651 L 186.932 324.596"/><path style="fill:none;stroke:#FF0000" d="M 191.149 324.596 L 165.127 324.596"/><path style="fill:none;stroke:#FF0000" d="M 191.149 324.596 L 191.149 320.562"/><path style="fill:none;stroke:#FF0000" d="M 189.085 316.706 L 193.572 320.562"/><path style="fill:none;stroke:#FF0000" d="M 191.239 304.423 L 191.239 302.341"/><path style="fill:none;stroke:#FF0000" d="M 191.149 320.562 L 191.149 318.48"/><path style="fill:none;stroke:#FF0000" d="M 191.149 324.596 L 193.572 324.596"/><path style="fill:none;stroke:#FF0000" d="M 193.572 324.596 L 195.725 324.596"/><path style="fill:none;stroke:#FF0000" d="M 195.725 324.596 L 197.161 324.596"/><path style="fill:none;stroke:#FF0000" d="M 195.725 324.596 L 195.725 322.983"/><path style="fill:none;stroke:#FF0000" d="M 191.239 308.458 L 195.636 308.458"/><path style="fill:none;stroke:#FF0000" d="M 195.636 308.458 L 197.251 308.458"/><path style="fill:none;stroke:#FF0000" d="M 195.636 308.458 L 195.636 306.642"/><path style="fill:none;stroke:#FF0000" d="M 217.171 320.92 L 232.066 320.92"/><path style="fill:none;stroke:#FF0000" d="M 232.066 320.92 L 228.836 317.065"/><path style="fill:none;stroke:#FF0000" d="M 232.066 320.92 L 228.836 324.776"/><path style="fill:none;stroke:#FF0000" d="M 232.156 304.513 L 217.261 304.513"/><path style="fill:none;stroke:#FF0000" d="M 217.261 304.513 L 220.491 308.368"/><path style="fill:none;stroke:#FF0000" d="M 217.261 304.513 L 220.491 300.657"/></g></svg>